<?xml version="1.0" encoding="iso-8859-1"?>
<!-- Generator: Adobe Illustrator 19.0.0, SVG Export Plug-In . SVG Version: 6.00 Build 0)  -->
<svg version="1.1" id="Layer_1" xmlns="http://www.w3.org/2000/svg" xmlns:xlink="http://www.w3.org/1999/xlink" x="0px" y="0px"
	 viewBox="0 0 510.96 510.96" style="enable-background:new 0 0 510.96 510.96;" xml:space="preserve">
<g transform="translate(1 1)">
	<g>
		<path d="M500.004,218.924c0-0.948,0-0.948,0-0.948c-7.094-23.056-17.506-38.644-29.684-48.323
			c-1.606-14.585-4.008-29.997-7.294-47.44c-7.585-38.874-31.289-63.526-61.63-63.526h-8.533c-13.274,0-32.237,5.689-46.459,30.341
			c-8.533-27.496-34.133-49.304-62.578-49.304h-0.948c-28.444,0-54.044,21.807-62.578,50.252
			c-12.326-19.911-29.393-31.289-49.304-31.289H169.1c-29.393,0-55.941,22.756-63.526,52.148
			c-10.43-16.119-23.704-23.704-39.822-23.704c-18.015,0-42.667,9.482-56.889,57.837C-2.514,197.117-4.411,249.265,5.071,301.413
			l3.793,18.963c8.533,28.444,26.548,41.719,56.889,41.719c18.015,0,33.185-6.637,44.563-18.015
			c9.481,21.807,32.237,36.978,59.733,36.978h1.896c20.859,0,38.874-8.533,50.252-21.807c3.751,9.378,9.736,17.711,17.353,24.365
			l-0.286,0.286c-1.896,0.948-2.844,1.896-2.844,3.793c-3.793,12.326-3.793,28.444,0.948,40.77
			c9.482,24.652,32.237,40.77,58.785,40.77c6.637,0,13.274-0.948,18.015-0.948c0,0,121.363-34.133,122.311-34.133
			c44.563-13.274,55.941-49.304,63.526-73.007C513.278,314.687,513.278,267.28,500.004,218.924z M236.419,336.495V318.48v-79.644
			c0-5.689-3.793-9.482-9.482-9.482s-9.481,3.793-9.481,9.482v79.644c0,24.652-19.911,43.615-46.459,43.615H169.1
			c-26.548,0-46.459-18.963-46.459-43.615v-3.793v-6.637v-69.215c0-5.689-3.793-9.482-9.482-9.482s-9.481,3.793-9.481,9.482v69.215
			c0,19.911-16.119,35.081-37.926,35.081c-22.756,0-32.237-6.637-37.926-27.496l-3.793-18.015
			c-8.533-49.304-7.585-99.556,3.793-147.911c8.533-28.444,20.859-43.615,37.926-43.615c11.378,0,20.859,7.585,29.393,23.704
			c1.896,2.844,4.741,4.741,9.482,4.741h9.482c4.741,0,9.481-4.741,9.481-9.481c0.948-25.6,22.756-47.407,46.459-47.407h1.896
			c19.911,0,32.237,18.015,37.926,32.237c0.948,3.793,4.741,5.689,8.533,5.689h9.482c4.741,0,9.481-4.741,9.481-9.482
			c0.948-25.6,22.756-47.407,46.459-47.407h0.948c23.704,0,45.511,21.807,46.459,47.407c0,5.689,4.741,9.482,9.481,9.482h9.482
			c3.793,0,7.585-2.844,9.482-6.637c7.585-20.859,18.963-31.289,34.133-31.289h8.533c24.652,0,38.874,25.6,41.719,48.356
			c3.845,21.15,6.495,39.264,7.994,56.618c2.322,32.86,1.192,62.609-4.202,110.256l-3.793,27.496
			c-3.793,15.17-14.222,41.719-43.615,41.719h-8.533c-23.704,0-42.667-17.067-42.667-39.822v-92.919
			c0-5.689-3.793-9.481-9.482-9.481c-5.689,0-9.481,3.793-9.481,9.481v92.919v14.222c0,25.6-19.911,44.563-46.459,44.563h-0.948
			c-0.591,0-1.177-0.022-1.763-0.043c-7.246-0.325-14.443-2.609-21.013-5.689C245.985,367.689,236.419,353.183,236.419,336.495z
			 M482.937,354.51c-8.533,26.548-18.963,50.252-50.252,59.733l-122.311,34.133c-23.704,6.637-47.407-4.741-54.993-26.548
			c-2.844-7.585-2.844-18.015-0.948-26.548l2.362-0.787c8.212,3.546,17.345,5.528,27.031,5.528h0.948h0h0.948
			c26.957,0,50.258-15.497,60.097-38.441c10.459,12.999,27.355,20.426,47.044,20.426h8.533c16.742,0,31.037-5.978,41.876-17.197
			c9.907-9.798,17.058-23.828,20.701-41.588l3.793-28.444c4.741-35.081,6.637-63.526,5.689-94.815
			c2.844,6.637,6.637,14.222,9.482,22.756C495.263,268.228,495.263,310.895,482.937,354.51z"/>
	</g>
</g>
<g>
</g>
<g>
</g>
<g>
</g>
<g>
</g>
<g>
</g>
<g>
</g>
<g>
</g>
<g>
</g>
<g>
</g>
<g>
</g>
<g>
</g>
<g>
</g>
<g>
</g>
<g>
</g>
<g>
</g>
</svg>
