<?xml version="1.0" encoding="iso-8859-1"?>
<!-- Generator: Adobe Illustrator 18.0.0, SVG Export Plug-In . SVG Version: 6.00 Build 0)  -->
<!DOCTYPE svg PUBLIC "-//W3C//DTD SVG 1.1//EN" "http://www.w3.org/Graphics/SVG/1.1/DTD/svg11.dtd">
<svg version="1.1" id="Capa_1" xmlns="http://www.w3.org/2000/svg" xmlns:xlink="http://www.w3.org/1999/xlink" x="0px" y="0px"
	 viewBox="0 0 438.023 438.023" style="enable-background:new 0 0 438.023 438.023;" xml:space="preserve">
<g>
	<path d="M432.523,339.895h-13.838V33.266c0-3.038-2.462-5.5-5.5-5.5h-45.958c-3.038,0-5.5,2.462-5.5,5.5v13.649H248.354V33.266
		c0-3.038-2.462-5.5-5.5-5.5h-45.958c-3.038,0-5.5,2.462-5.5,5.5v13.649H78.021V33.266c0-3.038-2.462-5.5-5.5-5.5H26.564
		c-3.038,0-5.5,2.462-5.5,5.5v306.628H5.5c-3.038,0-5.5,2.462-5.5,5.5v59.362c0,3.038,2.462,5.5,5.5,5.5h48.817
		c3.038,0,5.5-2.462,5.5-5.5v-7.904h318.389v7.904c0,3.038,2.462,5.5,5.5,5.5h48.817c3.038,0,5.5-2.462,5.5-5.5v-59.362
		C438.023,342.357,435.561,339.895,432.523,339.895z M383.706,339.895h-10.979V180.469h34.958v159.426H383.706z M78.021,339.895
		V210.15h97.617c-3.386,6.699-5.306,14.261-5.306,22.266c0,27.318,22.225,49.542,49.542,49.542s49.543-22.225,49.543-49.542
		c0-8.005-1.92-15.567-5.307-22.266h97.617v129.745H78.021z M78.021,150.788h113.375v18.681H78.021V150.788z M204.023,180.469v5.02
		c-8.071,2.734-15.221,7.482-20.829,13.66H78.021v-18.681H204.023z M361.728,180.469v18.681H256.556
		c-5.609-6.18-12.761-10.928-20.833-13.661v-5.019H361.728z M248.354,169.469v-18.681h113.371v18.681H248.354z M219.875,193.873
		c21.252,0,38.543,17.29,38.543,38.542s-17.291,38.542-38.543,38.542s-38.542-17.29-38.542-38.542S198.622,193.873,219.875,193.873z
		 M224.723,183.114c-1.596-0.156-3.212-0.24-4.849-0.24c-1.637,0-3.255,0.084-4.852,0.24v-2.645h9.7V183.114z M407.685,38.766
		v130.703h-34.958V38.766H407.685z M361.728,57.915v81.873H248.354V57.915H361.728z M202.396,38.766h34.958v130.703h-34.958V38.766z
		 M191.396,57.915v81.873H78.021V57.915H191.396z M67.021,38.766v106.521v24.181H32.064V38.766H67.021z M32.064,180.469h34.958
		v159.426H32.064V180.469z M48.817,399.257H11v-48.362h37.817V399.257z M59.817,385.852v-34.958h318.389v34.958H59.817z
		 M427.023,399.257h-37.817v-48.362h37.817V399.257z"/>
	<path d="M219.875,259.374c14.865,0,26.958-12.093,26.958-26.958s-12.093-26.958-26.958-26.958
		c-14.864,0-26.958,12.093-26.958,26.958S205.01,259.374,219.875,259.374z M219.875,216.458c8.799,0,15.958,7.159,15.958,15.958
		s-7.159,15.958-15.958,15.958c-8.799,0-15.958-7.159-15.958-15.958S211.076,216.458,219.875,216.458z"/>
</g>
<g>
</g>
<g>
</g>
<g>
</g>
<g>
</g>
<g>
</g>
<g>
</g>
<g>
</g>
<g>
</g>
<g>
</g>
<g>
</g>
<g>
</g>
<g>
</g>
<g>
</g>
<g>
</g>
<g>
</g>
</svg>
