<?xml version="1.0" encoding="iso-8859-1"?>
<!-- Generator: Adobe Illustrator 18.0.0, SVG Export Plug-In . SVG Version: 6.00 Build 0)  -->
<!DOCTYPE svg PUBLIC "-//W3C//DTD SVG 1.1//EN" "http://www.w3.org/Graphics/SVG/1.1/DTD/svg11.dtd">
<svg fill="#BF003C" version="1.1" id="Capa_1" xmlns="http://www.w3.org/2000/svg" xmlns:xlink="http://www.w3.org/1999/xlink" x="0px" y="0px"
	 viewBox="0 0 436.77 436.77" style="enable-background:new 0 0 436.77 436.77;" xml:space="preserve">
<g>
	<g>
		<path d="M277.873,175.805l-31.197-60.799c-0.855-1.668-2.573-2.717-4.448-2.717s-3.593,1.049-4.448,2.717l-31.197,60.799
			l0.011,0.005c-0.709,1.383-0.774,3.071-0.011,4.56l31.197,60.798c0.855,1.668,2.573,2.717,4.448,2.717s3.593-1.049,4.448-2.717
			l31.198-60.798l-0.011-0.006C278.572,178.982,278.637,177.294,277.873,175.805z M242.228,227.934l-25.578-49.846l25.578-49.847
			l25.578,49.848L242.228,227.934z"/>
		<g>
			<g>
				<path d="M161.176,55.885c-1.311,0-2.601-0.53-3.53-1.46c-0.94-0.93-1.47-2.22-1.47-3.54c0-1.31,0.529-2.6,1.47-3.54
					c0.93-0.93,2.22-1.46,3.53-1.46c1.319,0,2.609,0.53,3.54,1.46c0.93,0.94,1.46,2.23,1.46,3.54c0,1.32-0.53,2.61-1.46,3.54
					C163.785,55.354,162.495,55.885,161.176,55.885z"/>
			</g>
			<g>
				<path d="M161.176,310.285c-1.311,0-2.601-0.53-3.53-1.46c-0.94-0.93-1.47-2.22-1.47-3.54c0-1.31,0.529-2.6,1.47-3.53
					c0.93-0.93,2.21-1.47,3.53-1.47c1.319,0,2.609,0.54,3.54,1.47c0.93,0.93,1.46,2.22,1.46,3.53c0,1.32-0.53,2.61-1.46,3.54
					C163.785,309.754,162.495,310.285,161.176,310.285z"/>
			</g>
			<g>
				<path d="M323.276,55.885c-1.32,0-2.6-0.53-3.53-1.46c-0.93-0.93-1.47-2.22-1.47-3.54c0-1.32,0.54-2.61,1.47-3.54
					c0.931-0.93,2.21-1.46,3.53-1.46c1.32,0,2.61,0.53,3.54,1.46c0.93,0.94,1.46,2.23,1.46,3.54c0,1.32-0.53,2.61-1.46,3.54
					C325.886,55.354,324.596,55.885,323.276,55.885z"/>
			</g>
			<g>
				<path d="M323.276,310.294c-1.309,0-2.6-0.54-3.53-1.47c-0.93-0.93-1.47-2.22-1.47-3.54c0-1.32,0.54-2.6,1.47-3.53
					c0.931-0.93,2.221-1.47,3.53-1.47c1.32,0,2.601,0.54,3.54,1.47c0.93,0.93,1.46,2.22,1.46,3.53c0,1.32-0.53,2.61-1.46,3.54
					C325.876,309.754,324.596,310.294,323.276,310.294z"/>
			</g>
		</g>
		<g>
			<path d="M341.545,213.891c-9.158,0-16.609-7.45-16.609-16.608v-38.391c0-9.158,7.451-16.608,16.609-16.608
				c9.157,0,16.606,7.451,16.606,16.608v38.391C358.152,206.441,350.702,213.891,341.545,213.891z M341.545,152.284
				c-3.645,0-6.609,2.964-6.609,6.608v38.391c0,3.644,2.965,6.608,6.609,6.608c3.643,0,6.606-2.964,6.606-6.608v-38.391
				C348.152,155.249,345.188,152.284,341.545,152.284z"/>
		</g>
		<path d="M356.903,356.175c0.457,0,9.808,0,9.808,0c2.762,0,5-2.239,5-5V5c0-2.761-2.238-5-5-5h-273
			C77.912,0,65.06,12.853,65.06,28.651V390.46c0,15.798,12.853,28.65,28.651,28.65h41.865v12.66c0,2.027,1.224,3.853,3.099,4.624
			c1.873,0.77,4.028,0.333,5.455-1.107l13.479-13.617l13.479,13.617c0.958,0.968,2.245,1.483,3.555,1.483
			c0.64,0,1.285-0.123,1.9-0.376c1.875-0.771,3.099-2.598,3.099-4.624v-12.66H366.71c2.762,0,5-2.239,5-5s-2.238-5-5-5h-10.64
			c-2.613-0.403-4.623-2.661-4.623-5.385v-41.899C351.448,358.818,353.895,356.175,356.903,356.175z M361.71,228.638h-82.792
			l24.768-48.268l-0.012-0.006c0.708-1.384,0.773-3.071,0.01-4.56l-24.768-48.268h82.794V228.638z M242.228,278.236l-51.389-100.148
			l51.389-100.148l51.389,100.15L242.228,278.236z M246.676,64.705c-0.855-1.668-2.573-2.717-4.448-2.717s-3.593,1.049-4.448,2.717
			l-57.009,111.101l0.01,0.005c-0.708,1.383-0.773,3.071-0.01,4.56l57.009,111.1c0.855,1.668,2.573,2.717,4.448,2.717
			s3.593-1.049,4.448-2.717l27.11-52.833h62.758v80.253H147.911V37.283h188.633v80.254h-62.759L246.676,64.705z M75.06,390.46
			v-15.634c0-9.86,7.697-17.936,17.396-18.587c-4.279,5.007-6.87,11.499-6.87,18.587l0.001,15.634c0,7.089,2.594,13.58,6.874,18.587
			C82.759,408.398,75.06,400.321,75.06,390.46z M93.71,346.175c-7.119,0-13.635,2.616-18.65,6.929V28.651
			C75.06,18.367,83.426,10,93.71,10h19.035v336.175H93.71z M169.641,419.611l-8.479-8.566c-0.939-0.949-2.219-1.482-3.554-1.482
			c-1.335,0-2.614,0.534-3.554,1.482l-8.479,8.566v-31.969h24.064V419.611z M342.434,409.11H179.641v-21.467h20.219
			c2.762,0,5-2.239,5-5s-2.238-5-5-5h-79.167c-2.762,0-5,2.239-5,5s2.238,5,5,5h14.884v21.467h-21.339
			c-10.284,0-18.651-8.367-18.651-18.65l-0.001-15.634c0-10.284,8.366-18.65,18.65-18.65h228.297
			c-0.694,1.752-1.085,3.655-1.085,5.651v41.899C341.448,405.622,341.803,407.433,342.434,409.11z M122.745,346.175V10H361.71
			v107.537h-15.166V32.283c0-2.761-2.238-5-5-5H142.911c-2.762,0-5,2.239-5,5v291.609c0,2.761,2.238,5,5,5h198.633
			c2.762,0,5-2.239,5-5v-85.253h15.166v107.537H122.745z"/>
	</g>
</g>
<g>
</g>
<g>
</g>
<g>
</g>
<g>
</g>
<g>
</g>
<g>
</g>
<g>
</g>
<g>
</g>
<g>
</g>
<g>
</g>
<g>
</g>
<g>
</g>
<g>
</g>
<g>
</g>
<g>
</g>
</svg>
